<svg xmlns="http://www.w3.org/2000/svg" xmlns:xlink="http://www.w3.org/1999/xlink" version="1.1" font-family="sans-serif, droid-sans, helvetica, verdana, tahoma" viewbox="0 0 600 195" width="600" height="195" preserveAspectRatio="xMinYMin meet"><rect x="0" y="0" width="600" height="195" fill="#FEFEFE" stroke="#757575" stroke-width="2"/><g stroke="#757575" stroke-width="1"><line x1="123" y1="64" x2="123" y2="157"/><line x1="123" y1="156" x2="586" y2="156"/></g><a xlink:href="https://www.openbenchmarking.org/" xlink:show="new"><text x="585" y="59" font-size="8" fill="#065695" text-anchor="end" xlink:show="new">OpenBenchmarking.org</text></a><polygon points="123,56 132,60.5 132,51.5" fill="#065695" stroke="#949494" stroke-width="1"/><text x="135" y="59" font-size="8" fill="#065695" text-anchor="start">Milliseconds, Fewer Is Better</text><rect x="0" y="0" width="600" height="48" fill="#231f20"/><a xlink:href="https://openbenchmarking.org/test/pts/pybench-1.1.3" xlink:show="new"><text x="6" y="19" font-size="17" fill="#FEFEFE" text-anchor="start" xlink:show="new" font-weight="bold">PyBench v2018-02-16</text></a><text x="6" y="36" font-size="11" font-weight="bold" fill="#FEFEFE" text-anchor="start">Total For Average Test Times</text><path d="m74 22v9m-5-16v16m-5-28v28m-23-2h12.5c2.485281 0 4.5-2.014719 4.5-4.5s-2.014719-4.5-4.5-4.5h-8c-2.485281 0-4.5-2.014719-4.5-4.5s2.014719-4.5 4.5-4.5h12.5m-21 5h-11m11 13h-2c-4.970563 0-9-4.029437-9-9v-20m-24 40v-20c0-4.970563 4.0294373-9 9-9 4.970563 0 9 4.029437 9 9s-4.029437 9-9 9h-9" stroke="#ffffff" stroke-width="4" fill="none" transform="translate(508,4)"/><line x1="123" y1="110" x2="123" y2="145" stroke="#757575" stroke-width="11" stroke-dasharray="1,45"/><g font-size="10" fill="#231f20" font-weight="bold"><text x="118" y="85" text-anchor="end">Windows 10 Home</text><text x="118" y="131" text-anchor="end">Ubuntu 20.04</text></g><g font-size="10" fill="#065695" text-anchor="middle"><text x="202" y="171">400</text><text x="279" y="171">800</text><text x="356" y="171">1200</text><text x="433" y="171">1600</text><text x="510" y="171">2000</text></g><g stroke="#BABABA" stroke-width="1"><line x1="202" y1="64" x2="202" y2="151" stroke-dasharray="5,5"/><line x1="202" y1="152" x2="202" y2="161"/><line x1="279" y1="64" x2="279" y2="151" stroke-dasharray="5,5"/><line x1="279" y1="152" x2="279" y2="161"/><line x1="356" y1="64" x2="356" y2="151" stroke-dasharray="5,5"/><line x1="356" y1="152" x2="356" y2="161"/><line x1="433" y1="64" x2="433" y2="151" stroke-dasharray="5,5"/><line x1="433" y1="152" x2="433" y2="161"/><line x1="510" y1="64" x2="510" y2="151" stroke-dasharray="5,5"/><line x1="510" y1="152" x2="510" y2="161"/></g><g stroke="#949494" stroke-width="1"><rect x="123" y="70" height="34" width="377" fill="#373277"/><rect x="123" y="116" height="34" width="261" fill="#2196f3"/></g><g font-size="8" fill="#065695" text-anchor="end"><text y="101" x="118">SE +/- 2.03, N = 3</text><text y="147" x="118">SE +/- 2.03, N = 3</text></g><g font-size="10" fill="#FFFFFF" font-weight="bold" text-anchor="end"><text x="495" y="93">1960</text><text x="379" y="139">1356</text></g><rect x="0" y="178" width="600" height="17" fill="#231f20"/><a xlink:href="https://www.phoronix-test-suite.com/" xlink:show="new"><text x="585" y="190" font-size="9" fill="#FEFEFE" text-anchor="end" xlink:show="new">Phoronix Test Suite 9.2.0</text></a><a xlink:href="/prospect/2001319-VE-MOTILE98649/fa95c59f61f38f7b8191e913fa323e51b9368538" xlink:show="new"><g transform="translate(4,179)" width="10" height="16"><path d="M5 0v6.5L0 11l3-3-3-3.5L5 0" fill="#038bb8"/><path d="M5 0v6.5l5 4.5-3-3 3-3.5L5 0" fill="#25b3e8"/><path d="M5 16V9l5-4.5V11l-5 5" fill="#e4f4fd"/><path d="M5 16V9L0 4.5V11l5 5" fill="#65cbf4"/></g></a></svg>
